<svg width="52" height="55" viewBox="0 0 52 55" fill="none" xmlns="http://www.w3.org/2000/svg">
<path fill-rule="evenodd" clip-rule="evenodd" d="M22.8294 0.149894C19.8916 0.536777 17.1988 1.36771 14.6439 2.67586C13.6232 3.19848 11.667 4.40676 11.0884 4.8719C10.9449 4.98729 10.5322 5.31396 10.1716 5.59783C9.29298 6.28925 8.91014 6.64665 7.70539 7.90035C2.7233 13.0848 -0.00275927 19.9927 2.09578e-06 27.4261C0.00177726 31.9965 0.88147 35.9529 2.7877 39.963C5.24817 45.139 9.53598 49.6879 14.2529 52.1264C16.5388 53.3081 18.2501 53.9499 20.4064 54.4341C22.536 54.9123 23.4272 55.0019 26.0345 55C28.0356 54.9985 28.6779 54.9592 29.773 54.7706C32.3827 54.3216 34.9282 53.5002 37.08 52.4126C37.7277 52.0853 40.0461 50.6868 40.1372 50.5684C40.1643 50.5333 40.3078 50.4379 40.4561 50.3566C40.6043 50.2754 40.8041 50.1339 40.9 50.0421C40.9958 49.9505 41.4278 49.5951 41.8597 49.2526C42.2918 48.9101 42.7595 48.5089 42.8992 48.361C43.0388 48.2131 43.3611 47.8913 43.6154 47.6462C43.8696 47.401 44.0534 47.2003 44.0238 47.2003C43.9942 47.2003 44.1632 47.0233 44.3995 46.8069C44.9117 46.3379 46.6499 44.0897 47.299 43.0566C47.5528 42.6528 47.8352 42.2043 47.9266 42.0601C48.5372 41.0967 49.7731 38.3446 50.2584 36.8674C50.3912 36.4635 50.5424 36.0511 50.5947 35.9509C50.6469 35.8507 50.6896 35.673 50.6896 35.5561C50.6896 35.4391 50.7299 35.2614 50.7792 35.1612C50.9086 34.8983 51.2455 33.263 51.4907 31.7073C51.7759 29.8971 51.8043 25.7704 51.5445 23.8594C50.1798 13.8178 44.1436 5.65636 35.2511 1.82939C34.2251 1.38786 32.0091 0.702629 30.8518 0.469219C28.5317 0.00103663 25.0213 -0.138694 22.8294 0.149894Z" fill="white"/>
<path fill-rule="evenodd" clip-rule="evenodd" d="M18.2707 11.0226C16.1845 11.432 14.5771 12.3288 13.085 13.916C11.8037 15.279 11.006 16.7373 10.5209 18.6039L10.2793 19.5336V27.5073V35.4811L10.5209 36.4108C11.468 40.0546 14.0598 42.82 17.4639 43.8184L18.3661 44.083H25.8622H33.3584L34.2324 43.826C35.9872 43.31 37.3582 42.4615 38.6395 41.0986C39.9208 39.7357 40.7184 38.2774 41.2036 36.4108L41.4452 35.4811V27.5073V19.5336L41.1964 18.574C40.2586 14.9563 37.6469 12.1873 34.2324 11.1905L33.3584 10.9354L26.1348 10.9162C20.5312 10.9013 18.7676 10.9252 18.2707 11.0226ZM18.4115 14.8067C16.6207 15.3127 15.1447 16.6115 14.3579 18.3738C13.761 19.7108 13.7775 19.4508 13.7775 27.5073C13.7775 35.5639 13.761 35.3039 14.3579 36.6409C15.1486 38.412 16.526 39.6332 18.3344 40.1662C18.9742 40.3548 19.2491 40.362 25.8622 40.362C32.5224 40.362 32.7462 40.3561 33.4042 40.1621C35.5538 39.5284 37.1634 37.8164 37.759 35.5298C37.9414 34.8298 37.947 34.5918 37.947 27.5073C37.947 20.4729 37.9402 20.1805 37.763 19.4999C37.153 17.1585 35.4751 15.4032 33.2712 14.8008C32.4827 14.5853 19.1765 14.5905 18.4115 14.8067ZM33.5846 17.2865C32.9084 17.776 32.7108 18.4289 33.0307 19.1167C33.2875 19.6684 33.6053 19.899 34.1698 19.9432C34.9778 20.0065 35.5835 19.3923 35.5842 18.5089C35.5851 17.4066 34.4105 16.6886 33.5846 17.2865ZM24.5748 19.0944C21.4157 19.7099 19.0127 22.0395 18.1189 25.3531C17.8261 26.4391 17.8261 28.5756 18.1189 29.6616C18.943 32.7166 20.965 34.8674 23.837 35.744C24.8579 36.0555 26.8665 36.0555 27.8875 35.744C30.7544 34.8689 32.7829 32.7112 33.6055 29.6616C33.8984 28.5756 33.8984 26.4391 33.6055 25.3531C32.792 22.3374 30.7372 20.1388 27.9363 19.2877C27.1907 19.0613 25.3026 18.9526 24.5748 19.0944ZM24.7016 22.5247C22.5977 23.0666 21.0465 25.1812 21.0465 27.5073C21.0465 30.3247 23.2136 32.6299 25.8622 32.6299C28.5109 32.6299 30.6779 30.3247 30.6779 27.5073C30.6779 26.6846 30.5249 26.0116 30.1535 25.1997C29.1965 23.1085 26.8689 21.9664 24.7016 22.5247Z" fill="#096543"/>
</svg>
