<svg width="55" height="55" viewBox="0 0 55 55" fill="none" xmlns="http://www.w3.org/2000/svg">
<path fill-rule="evenodd" clip-rule="evenodd" d="M24.2757 0.149894C21.1518 0.536777 18.2884 1.36771 15.5717 2.67586C14.4863 3.19848 12.4061 4.40676 11.7909 4.8719C11.6383 4.98729 11.1995 5.31396 10.816 5.59783C9.88173 6.28925 9.47463 6.64665 8.19356 7.90035C2.89583 13.0848 -0.00293408 19.9927 2.22856e-06 27.4261C0.00188986 31.9965 0.937314 35.9529 2.96431 39.963C5.58067 45.139 10.1401 49.6879 15.1559 52.1264C17.5866 53.3081 19.4063 53.9499 21.6992 54.4341C23.9637 54.9123 24.9114 55.0019 27.6839 55C29.8118 54.9985 30.4947 54.9592 31.6593 54.7706C34.4343 54.3216 37.1411 53.5002 39.4292 52.4126C40.1179 52.0853 42.5832 50.6868 42.6801 50.5684C42.7089 50.5333 42.8615 50.4379 43.0191 50.3566C43.1767 50.2754 43.3892 50.1339 43.4911 50.0421C43.5931 49.9505 44.0524 49.5951 44.5117 49.2526C44.9711 48.9101 45.4685 48.5089 45.617 48.361C45.7655 48.2131 46.1082 47.8913 46.3786 47.6462C46.6489 47.401 46.8444 47.2003 46.8128 47.2003C46.7814 47.2003 46.9611 47.0233 47.2124 46.8069C47.7571 46.3379 49.6054 44.0897 50.2956 43.0566C50.5654 42.6528 50.8658 42.2043 50.963 42.0601C51.6122 41.0967 52.9264 38.3446 53.4425 36.8674C53.5836 36.4635 53.7445 36.0511 53.8001 35.9509C53.8556 35.8507 53.901 35.673 53.901 35.5561C53.901 35.4391 53.9439 35.2614 53.9963 35.1612C54.1339 34.8983 54.4921 33.263 54.7528 31.7073C55.0561 29.8971 55.0863 25.7704 54.8101 23.8594C53.3589 13.8178 46.9402 5.65636 37.4844 1.82939C36.3934 1.38786 34.037 0.702629 32.8064 0.469219C30.3393 0.00103663 26.6065 -0.138694 24.2757 0.149894Z" fill="black"/>
<path fill-rule="evenodd" clip-rule="evenodd" d="M19.4273 11.0245C17.209 11.434 15.4998 12.3308 13.9131 13.918C12.5507 15.281 11.7024 16.7392 11.1866 18.6059L10.9297 19.5356V27.5093V35.483L11.1866 36.4127C12.1937 40.0566 14.9497 42.822 18.5695 43.8204L19.5288 44.085H27.4999H35.4709L36.4003 43.828C38.2663 43.312 39.7241 42.4635 41.0866 41.1006C42.4491 39.7376 43.2973 38.2793 43.8131 36.4127L44.07 35.483V27.5093V19.5356L43.8055 18.5759C42.8083 14.9583 40.0312 12.1893 36.4003 11.1924L35.4709 10.9374L27.7897 10.9181C21.8311 10.9032 19.9557 10.9271 19.4273 11.0245ZM19.5771 14.8086C17.6728 15.3146 16.1033 16.6135 15.2667 18.3757C14.6319 19.7127 14.6495 19.4527 14.6495 27.5093C14.6495 35.5659 14.6319 35.3059 15.2667 36.6428C16.1075 38.414 17.5722 39.6352 19.4951 40.1682C20.1755 40.3568 20.4677 40.3639 27.4999 40.3639C34.5819 40.3639 34.8199 40.358 35.5196 40.164C37.8054 39.5304 39.517 37.8183 40.1504 35.5317C40.3443 34.8318 40.3502 34.5937 40.3502 27.5093C40.3502 20.4748 40.3431 20.1824 40.1545 19.5018C39.5059 17.1605 37.7218 15.4052 35.3782 14.8027C34.5397 14.5872 20.3905 14.5924 19.5771 14.8086ZM35.7115 17.2884C34.9925 17.778 34.7823 18.4308 35.1225 19.1186C35.3956 19.6704 35.7334 19.901 36.3337 19.9452C37.193 20.0085 37.837 19.3943 37.8377 18.5109C37.8387 17.4086 36.5897 16.6905 35.7115 17.2884ZM26.1309 19.0964C22.7716 19.7119 20.2164 22.0414 19.266 25.355C18.9546 26.441 18.9546 28.5776 19.266 29.6636C20.1422 32.7185 22.2924 34.8694 25.3463 35.7459C26.4319 36.0574 28.5678 36.0574 29.6534 35.7459C32.702 34.8708 34.8589 32.7132 35.7337 29.6636C36.0451 28.5776 36.0451 26.441 35.7337 25.355C34.8687 22.3393 32.6837 20.1408 29.7053 19.2897C28.9125 19.0632 26.9048 18.9546 26.1309 19.0964ZM26.2657 22.5266C24.0285 23.0686 22.379 25.1832 22.379 27.5093C22.379 30.3267 24.6834 32.6318 27.4999 32.6318C30.3163 32.6318 32.6207 30.3267 32.6207 27.5093C32.6207 26.6866 32.458 26.0135 32.063 25.2016C31.0454 23.1105 28.5703 21.9684 26.2657 22.5266Z" fill="#096543"/>
</svg>
