<svg width="52" height="55" viewBox="0 0 52 55" fill="none" xmlns="http://www.w3.org/2000/svg">
<path fill-rule="evenodd" clip-rule="evenodd" d="M22.8294 0.149894C19.8916 0.536777 17.1988 1.36771 14.6439 2.67586C13.6232 3.19848 11.667 4.40676 11.0884 4.8719C10.9449 4.98729 10.5322 5.31396 10.1716 5.59783C9.29298 6.28925 8.91014 6.64665 7.70539 7.90035C2.7233 13.0848 -0.00275927 19.9927 2.09578e-06 27.4261C0.00177726 31.9965 0.88147 35.9529 2.7877 39.9631C5.24817 45.139 9.53598 49.6879 14.2529 52.1264C16.5388 53.3081 18.2501 53.9499 20.4064 54.4341C22.536 54.9123 23.4272 55.0019 26.0345 55C28.0356 54.9985 28.6779 54.9592 29.773 54.7706C32.3827 54.3216 34.9282 53.5002 37.08 52.4126C37.7277 52.0853 40.0461 50.6868 40.1372 50.5684C40.1643 50.5333 40.3078 50.4379 40.4561 50.3566C40.6043 50.2754 40.8041 50.1339 40.9 50.0421C40.9958 49.9505 41.4278 49.5952 41.8597 49.2526C42.2918 48.9101 42.7595 48.5089 42.8992 48.361C43.0388 48.2131 43.3611 47.8913 43.6154 47.6462C43.8696 47.401 44.0534 47.2003 44.0237 47.2003C43.9942 47.2003 44.1632 47.0233 44.3995 46.8069C44.9117 46.3379 46.6499 44.0897 47.299 43.0566C47.5528 42.6528 47.8352 42.2043 47.9266 42.0601C48.5372 41.0967 49.7731 38.3446 50.2584 36.8674C50.3912 36.4635 50.5424 36.0511 50.5947 35.9509C50.6469 35.8507 50.6896 35.673 50.6896 35.5561C50.6896 35.4391 50.7299 35.2614 50.7792 35.1612C50.9086 34.8983 51.2455 33.263 51.4907 31.7073C51.7759 29.8971 51.8043 25.7704 51.5445 23.8594C50.1798 13.8178 44.1436 5.65636 35.2511 1.82939C34.2251 1.38786 32.009 0.702629 30.8518 0.469219C28.5317 0.00103664 25.0213 -0.138694 22.8294 0.149894ZM35.1569 12.9406C32.0374 13.5906 29.972 15.6782 28.5365 19.6317C28.3537 20.1351 28.2042 20.5914 28.2042 20.6458C28.2042 20.7001 28.4372 20.65 28.7219 20.5344C29.0459 20.4028 29.5923 20.3032 30.1817 20.268C30.9863 20.2202 31.1892 20.2428 31.5731 20.4235C33.0521 21.1194 33.0762 23.1772 31.6405 26.1655C30.3867 28.775 28.722 31.1385 27.8691 31.5199C26.8843 31.9604 26.0433 30.4862 25.2553 26.9381C24.9057 25.3637 24.7947 24.7313 24.1624 20.7123C23.8901 18.9814 23.5746 17.2364 23.4611 16.8345C23.0099 15.2374 22.2176 14.0779 21.2222 13.5579C20.726 13.2988 20.5494 13.2642 19.7229 13.2642C18.8431 13.2642 18.7406 13.2878 18.0414 13.6513C17.0455 14.1694 15.409 15.4502 13.9043 16.8896C13.2262 17.5382 12.0724 18.6373 11.3401 19.3321C10.6079 20.0269 9.99447 20.632 9.97691 20.6767C9.95946 20.7215 10.2656 21.2046 10.6572 21.7503L11.3693 22.7425L12.2177 22.1363C13.6749 21.0953 13.9552 21.0062 14.5478 21.3958C14.9715 21.6743 15.315 22.1664 15.7751 23.1541C16.4065 24.5095 16.7334 25.6422 18.4466 32.409C19.3387 35.9323 19.6386 36.9821 20.0109 37.8852C20.8024 39.805 21.9005 41.2666 22.9713 41.826C24.117 42.4245 25.9364 42.1165 27.6851 41.028C29.8336 39.6907 32.6117 36.8375 35.0558 33.458C38.8074 28.2707 40.7396 24.6499 41.5328 21.3207C41.8182 20.1228 41.8439 17.7509 41.5836 16.6315C41.2496 15.1952 40.4522 13.9259 39.5773 13.4377C38.5526 12.8659 36.5796 12.6441 35.1569 12.9406Z" fill="white"/>
</svg>
