<svg width="55" height="55" viewBox="0 0 55 55" fill="none" xmlns="http://www.w3.org/2000/svg">
<path fill-rule="evenodd" clip-rule="evenodd" d="M24.2757 0.149894C21.1518 0.536777 18.2884 1.36771 15.5717 2.67586C14.4863 3.19848 12.4061 4.40676 11.7909 4.8719C11.6383 4.98729 11.1995 5.31396 10.816 5.59783C9.88173 6.28925 9.47463 6.64665 8.19356 7.90035C2.89583 13.0848 -0.00293408 19.9927 2.22856e-06 27.4261C0.00188986 31.9965 0.937314 35.9529 2.96431 39.9631C5.58067 45.139 10.1401 49.6879 15.1559 52.1264C17.5866 53.3081 19.4063 53.9499 21.6992 54.4341C23.9637 54.9123 24.9114 55.0019 27.6839 55C29.8118 54.9985 30.4947 54.9592 31.6593 54.7706C34.4343 54.3216 37.141 53.5002 39.4292 52.4126C40.1179 52.0853 42.5832 50.6868 42.6801 50.5684C42.7089 50.5333 42.8615 50.4379 43.0191 50.3566C43.1767 50.2754 43.3892 50.1339 43.4911 50.0421C43.5931 49.9505 44.0524 49.5952 44.5117 49.2526C44.9711 48.9101 45.4685 48.5089 45.617 48.361C45.7655 48.2131 46.1082 47.8913 46.3786 47.6462C46.6489 47.401 46.8444 47.2003 46.8128 47.2003C46.7814 47.2003 46.9611 47.0233 47.2124 46.8069C47.7571 46.3379 49.6054 44.0897 50.2956 43.0566C50.5654 42.6528 50.8658 42.2043 50.963 42.0601C51.6122 41.0967 52.9264 38.3446 53.4425 36.8674C53.5836 36.4635 53.7445 36.0511 53.8001 35.9509C53.8556 35.8507 53.901 35.673 53.901 35.5561C53.901 35.4391 53.9439 35.2614 53.9963 35.1612C54.1339 34.8983 54.4921 33.263 54.7528 31.7073C55.0561 29.8971 55.0863 25.7704 54.8101 23.8594C53.3589 13.8178 46.9402 5.65636 37.4844 1.82939C36.3934 1.38786 34.037 0.702629 32.8064 0.469219C30.3393 0.00103664 26.6065 -0.138694 24.2757 0.149894ZM37.3842 12.9406C34.0671 13.5906 31.8708 15.6782 30.3444 19.6317C30.15 20.1351 29.991 20.5914 29.991 20.6458C29.991 20.7001 30.2388 20.65 30.5416 20.5344C30.8861 20.4028 31.4671 20.3032 32.0939 20.268C32.9494 20.2202 33.1652 20.2428 33.5733 20.4235C35.146 21.1194 35.1717 23.1772 33.6451 26.1655C32.3119 28.775 30.5417 31.1385 29.6347 31.5199C28.5876 31.9604 27.6933 30.4862 26.8554 26.9381C26.4836 25.3637 26.3655 24.7313 25.6932 20.7123C25.4037 18.9814 25.0681 17.2364 24.9474 16.8345C24.4676 15.2374 23.6252 14.0779 22.5667 13.5579C22.0391 13.2988 21.8513 13.2642 20.9724 13.2642C20.0368 13.2642 19.9279 13.2878 19.1844 13.6513C18.1254 14.1694 16.3852 15.4502 14.7852 16.8896C14.0642 17.5382 12.8372 18.6373 12.0586 19.3321C11.2799 20.0269 10.6277 20.632 10.609 20.6767C10.5904 20.7215 10.9159 21.2046 11.3324 21.7503L12.0896 22.7425L12.9917 22.1363C14.5412 21.0953 14.8394 21.0062 15.4694 21.3958C15.92 21.6743 16.2853 22.1664 16.7745 23.1541C17.4459 24.5095 17.7935 25.6422 19.6153 32.409C20.5639 35.9323 20.8828 36.9821 21.2787 37.8852C22.1204 39.805 23.288 41.2666 24.4266 41.826C25.6449 42.4245 27.5796 42.1165 29.4391 41.028C31.7237 39.6907 34.6778 36.8375 37.2768 33.458C41.266 28.2707 43.3206 24.6499 44.1641 21.3207C44.4676 20.1228 44.4949 17.7509 44.2181 16.6315C43.8629 15.1952 43.015 13.9259 42.0846 13.4377C40.9951 12.8659 38.8971 12.6441 37.3842 12.9406Z" fill="black"/>
</svg>
